<svg xmlns="http://www.w3.org/2000/svg" overflow="visible" width="1200" height="600"><path style="fill:#de0000;fill-opacity:1" fill="#c00" d="M0 0h1200v600H0z"/><path style="fill:#068e6b;fill-opacity:1" d="M0 225h1200v150H0z" fill="#093"/><path d="m150 30-6.735 20.73h-21.797l17.634 12.81-6.736 20.73L150 71.46l17.634 12.812-6.736-20.73 17.633-12.812h-21.796zm0 10.8 4.31 13.267h13.95l-11.285 8.2 4.31 13.266-11.285-8.2-11.285 8.2 4.31-13.267-11.285-8.2h13.95z" style="fill:#ffd900;fill-opacity:1;stroke:none;stroke-width:.12000027px;stroke-linecap:butt;stroke-linejoin:miter;stroke-opacity:1"/><g style="fill:#ffd900;fill-opacity:1"><path d="m137.437 171.694 18.863 18.994 17.789-17.666c27.058 29.021 55.438 56.995 82.287 86.128 4.034 4.062 10.598 4.085 14.66.05 4.063-4.034 4.085-10.598.05-14.66-28.818-27.19-57.725-54.602-86.552-81.891l23.965-23.8-33.34-4.616z" style="fill:#ffd900;fill-opacity:1;stroke:none;stroke-width:.48919073;stroke-miterlimit:4;stroke-dasharray:none;stroke-dashoffset:0;stroke-opacity:1" transform="matrix(.79146 0 0 .78939 -6.937 3.013)"/><path d="M198.289 110.195c15.517 8.74 27.298 21.282 34.248 34.393 7.044 13.289 10.14 27.162 10.203 38.254.13 22.744-18.437 41.182-41.181 41.182-12.136 0-23.047-5.249-30.583-13.6l-4.17 3.51a6.224 6.224 0 0 0-6.973 1.789 7.815 7.815 0 0 0-6.404 5.291c-3.135 6.289-8.636 11.22-15.291 13.478-.064.022-.12.05-.176.078-3.078 1.128-6.163 3.165-8.79 5.803-5.19 5.236-7.728 11.936-6.3 16.638a3.931 3.931 0 0 0-.215 1.27c0 2.17 1.76 3.93 3.931 3.93a3.933 3.933 0 0 0 1.578-.336c4.693 1.059 11.068-1.546 16.054-6.559 2.826-2.85 4.944-6.224 5.983-9.53 2.317-6.623 7.297-12.02 13.623-15.054.15-.072.273-.147.382-.223a7.815 7.815 0 0 0 4.225-5.214c9.702 11.445 24.253 18.753 40.519 19.136 29.833.702 52.133-21.258 53.164-52.837.519-15.892-5.63-36.385-19.641-53.19-10.709-12.845-26.41-23.509-44.187-28.209z" style="fill:#ffd900;fill-opacity:1;stroke:none;stroke-width:.50003481;stroke-miterlimit:4;stroke-dasharray:none;stroke-dashoffset:0;stroke-opacity:1" transform="matrix(.79146 0 0 .78939 -6.937 3.013)"/></g></svg>